<svg xmlns="http://www.w3.org/2000/svg" xmlns:xlink="http://www.w3.org/1999/xlink" width="500" zoomAndPan="magnify" viewBox="0 0 375 374.999991" height="500" preserveAspectRatio="xMidYMid meet" version="1.0"><defs><clipPath id="c9acb7164c"><path d="M 136.214844 123 L 242.828125 123 L 242.828125 229.546875 L 136.214844 229.546875 Z M 136.214844 123 " clip-rule="nonzero"/></clipPath></defs><path stroke-linecap="butt" transform="matrix(0.701408, 0, 0, 0.701408, 89.999999, 89.999994)" fill="none" stroke-linejoin="miter" d="M 23.501822 0.0000084259 L 23.501822 185.43605 C 23.501822 221.986392 53.129708 251.619847 89.68562 251.619847 L 155.869417 251.619847 " stroke="#000000" stroke-width="47" stroke-opacity="1" stroke-miterlimit="4"/><path stroke-linecap="butt" transform="matrix(0.701408, 0, 0, 0.701408, 169.744213, 89.999994)" fill="none" stroke-linejoin="miter" d="M 146.165066 0.0000084259 L 146.165066 178.535871 C 146.165066 197.922088 138.468499 216.506347 124.762816 230.212029 C 111.057134 243.917711 92.467306 251.619847 73.081089 251.619847 L 0.00268203 251.619847 " stroke="#000000" stroke-width="47" stroke-opacity="1" stroke-miterlimit="4"/><g clip-path="url(#c9acb7164c)"><path fill="#000000" d="M 206.425781 123.289062 C 209.40625 124.238281 212.277344 125.433594 215.015625 126.847656 C 216.046875 127.386719 216.578125 128.5 216.347656 129.640625 C 215.25 134.96875 216.765625 140.730469 220.898438 144.863281 C 225.03125 148.996094 230.792969 150.511719 236.117188 149.414062 C 237.257812 149.179688 238.375 149.710938 238.910156 150.746094 C 240.328125 153.484375 241.523438 156.355469 242.472656 159.335938 C 242.828125 160.445312 242.417969 161.609375 241.441406 162.253906 C 236.894531 165.242188 233.898438 170.390625 233.898438 176.238281 C 233.898438 182.085938 236.894531 187.234375 241.441406 190.222656 C 242.417969 190.863281 242.828125 192.03125 242.472656 193.140625 C 241.523438 196.121094 240.328125 198.992188 238.910156 201.730469 C 238.375 202.765625 237.257812 203.296875 236.121094 203.0625 C 230.792969 201.964844 225.03125 203.480469 220.898438 207.617188 C 216.765625 211.75 215.25 217.507812 216.347656 222.835938 C 216.582031 223.980469 216.046875 225.09375 215.015625 225.628906 C 212.277344 227.046875 209.40625 228.238281 206.425781 229.191406 C 205.3125 229.546875 204.148438 229.132812 203.507812 228.160156 C 200.515625 223.613281 195.371094 220.613281 189.519531 220.613281 C 183.675781 220.613281 178.527344 223.613281 175.535156 228.160156 C 174.894531 229.132812 173.730469 229.546875 172.621094 229.191406 C 169.640625 228.238281 166.765625 227.042969 164.03125 225.628906 C 162.996094 225.09375 162.460938 223.980469 162.699219 222.835938 C 163.796875 217.507812 162.277344 211.75 158.144531 207.617188 C 154.011719 203.480469 148.25 201.964844 142.925781 203.0625 C 141.785156 203.296875 140.667969 202.765625 140.132812 201.730469 C 138.714844 198.992188 137.519531 196.121094 136.566406 193.140625 C 136.214844 192.03125 136.625 190.863281 137.601562 190.222656 C 142.148438 187.230469 145.148438 182.085938 145.148438 176.238281 C 145.148438 170.390625 142.148438 165.242188 137.601562 162.253906 C 136.625 161.613281 136.214844 160.445312 136.566406 159.335938 C 137.519531 156.355469 138.714844 153.484375 140.132812 150.746094 C 140.667969 149.710938 141.785156 149.179688 142.925781 149.414062 C 148.25 150.511719 154.011719 148.996094 158.144531 144.863281 C 162.277344 140.730469 163.792969 134.96875 162.699219 129.640625 C 162.460938 128.5 162.996094 127.386719 164.03125 126.847656 C 166.765625 125.433594 169.640625 124.238281 172.621094 123.285156 C 173.730469 122.933594 174.894531 123.347656 175.535156 124.320312 C 178.527344 128.863281 183.675781 131.867188 189.519531 131.867188 C 195.371094 131.867188 200.515625 128.863281 203.507812 124.320312 C 204.148438 123.347656 205.3125 122.933594 206.425781 123.289062 Z M 198.636719 155.390625 C 202.988281 158.324219 205.851562 163.296875 205.851562 168.9375 C 205.851562 175.273438 202.234375 180.773438 196.957031 183.476562 C 196.386719 183.765625 196.054688 184.3125 196.054688 184.953125 L 196.054688 203.480469 C 193.957031 203.980469 191.769531 204.25 189.519531 204.25 C 187.273438 204.25 185.085938 203.984375 182.992188 203.480469 L 182.992188 184.953125 C 182.992188 184.3125 182.65625 183.769531 182.089844 183.476562 C 176.808594 180.773438 173.191406 175.277344 173.191406 168.9375 C 173.191406 163.292969 176.054688 158.320312 180.40625 155.390625 C 180.925781 155.039062 181.554688 155.003906 182.109375 155.300781 C 182.664062 155.597656 182.992188 156.136719 182.992188 156.765625 L 182.992188 171.007812 C 182.992188 171.921875 183.734375 172.667969 184.648438 172.667969 L 194.394531 172.667969 C 195.308594 172.667969 196.054688 171.921875 196.054688 171.007812 L 196.054688 156.765625 C 196.054688 156.136719 196.375 155.597656 196.933594 155.300781 C 197.488281 155.003906 198.117188 155.039062 198.636719 155.390625 Z M 189.519531 144.375 C 207.121094 144.375 221.386719 158.640625 221.386719 176.238281 C 221.386719 193.835938 207.121094 208.101562 189.519531 208.101562 C 171.925781 208.101562 157.65625 193.835938 157.65625 176.238281 C 157.65625 158.640625 171.925781 144.375 189.519531 144.375 Z M 189.519531 144.375 " fill-opacity="1" fill-rule="evenodd"/></g></svg>